<?xml version="1.0" encoding="utf-8"?>
<svg viewBox="11.423 63.833 474.711 372.441" xmlns="http://www.w3.org/2000/svg">
  <defs>
    <clipPath id="clippath0" transform="">
      <path d="M 0 232.5 L 232.5 232.5 L 232.5 0 L 0 0 Z" style="fill: none; clip-rule: nonzero;"/>
    </clipPath>
  </defs>
  <g style="" transform="matrix(2.894396, 0, 0, 3.396341, -383.561457, -310.574642)">
    <g style="clip-path: url(#clippath0);" transform="matrix(1, 0, 0, -1, 102.220276, 300.529999)">
      <g transform="translate(34.3687 161.356)">
        <path d="M 0 0 C 8.07 -4.253 16.14 -8.507 24.202 -12.757 C 24.178 -12.835 24.18 -12.905 24.148 -12.922 C 16.1 -17.166 8.05 -21.407 0 -25.647 Z" style="fill-opacity: 1; fill: #6366f1"/>
      </g>
    </g>
    <g style="clip-path: url(#clippath0);" transform="matrix(1, 0, 0, -1, 102.220276, 300.529999)">
      <g transform="translate(58.5908 148.5698)">
        <path d="M 0 0 L 0 -25.847 C -8.116 -21.542 -16.159 -17.276 -24.346 -12.934 C -16.203 -8.608 -8.156 -4.333 0 0" style="fill-opacity: 1; fill: #6366f1"/>
      </g>
    </g>
    <g style="clip-path: url(#clippath0);" transform="matrix(1, 0, 0, -1, 102.220276, 300.529999)">
      <g transform="translate(34.4629 132.8257)">
        <path d="M 0 0 C 8.07 -4.254 16.14 -8.507 24.202 -12.757 C 24.178 -12.835 24.18 -12.905 24.148 -12.922 C 16.101 -17.167 8.05 -21.407 0 -25.648 Z" style="fill-opacity: 1; fill: #6366f1"/>
      </g>
    </g>
    <g style="clip-path: url(#clippath0);" transform="matrix(1, 0, 0, -1, 102.220276, 300.529999)">
      <g transform="translate(58.6851 120.0391)">
        <path d="M 0 0 L 0 -25.847 C -8.116 -21.542 -16.159 -17.276 -24.346 -12.934 C -16.203 -8.608 -8.156 -4.333 0 0" style="fill-opacity: 1; fill: #6366f1"/>
      </g>
    </g>
    <g style="clip-path: url(#clippath0);" transform="matrix(1, 0, 0, -1, 102.220276, 300.529999)">
      <g transform="translate(86.1011 190.2915)">
        <path d="M 0 0 C 8.074 -4.264 16.149 -8.527 24.215 -12.786 C 24.191 -12.865 24.193 -12.935 24.161 -12.952 C 16.109 -17.206 8.055 -21.457 0 -25.707 Z" style="fill-opacity: 1; fill: #6366f1"/>
      </g>
    </g>
    <g style="clip-path: url(#clippath0);" transform="matrix(1, 0, 0, -1, 102.220276, 300.529999)">
      <g transform="translate(86.1011 190.2739)">
        <path d="M 0 0 L 0 -25.686 C -8.076 -21.408 -16.078 -17.168 -24.224 -12.854 C -16.122 -8.554 -8.115 -4.306 0 0" style="fill-opacity: 1; fill: #6366f1"/>
      </g>
    </g>
    <g style="clip-path: url(#clippath0);" transform="matrix(1, 0, 0, -1, 102.220276, 300.529999)">
      <g transform="translate(59.4336 176.2007)">
        <path d="M 0 0 C 8.074 -4.264 16.149 -8.527 24.215 -12.786 C 24.191 -12.865 24.193 -12.935 24.161 -12.952 C 16.109 -17.206 8.055 -21.456 0 -25.707 Z" style="fill-opacity: 1; fill: #6366f1"/>
      </g>
    </g>
    <g style="clip-path: url(#clippath0);" transform="matrix(1, 0, 0, -1, 102.220276, 300.529999)">
      <g transform="translate(59.4336 176.1831)">
        <path d="M 0 0 L 0 -25.686 C -8.076 -21.408 -16.078 -17.168 -24.224 -12.853 C -16.122 -8.554 -8.115 -4.306 0 0" style="fill-opacity: 1; fill: #6366f1"/>
      </g>
    </g>
    <g style="clip-path: url(#clippath0);" transform="matrix(1, 0, 0, -1, 102.220276, 300.529999)">
      <g transform="translate(61.5293 119.2656)">
        <path d="M 0 0 C 8.07 -4.254 16.14 -8.507 24.202 -12.757 C 24.178 -12.835 24.18 -12.905 24.148 -12.922 C 16.1 -17.167 8.05 -21.407 0 -25.648 Z" style="fill-opacity: 1; fill: #6366f1"/>
      </g>
    </g>
    <g style="clip-path: url(#clippath0);" transform="matrix(1, 0, 0, -1, 102.220276, 300.529999)">
      <g transform="translate(85.7515 106.479)">
        <path d="M 0 0 L 0 -25.847 C -8.117 -21.542 -16.159 -17.276 -24.346 -12.934 C -16.203 -8.608 -8.156 -4.333 0 0" style="fill-opacity: 1; fill: #6366f1"/>
      </g>
    </g>
    <g style="clip-path: url(#clippath0);" transform="matrix(1, 0, 0, -1, 102.220276, 300.529999)">
      <g transform="translate(88.8252 80.873)">
        <path d="M 0 0 C 8.07 4.254 16.14 8.507 24.202 12.757 C 24.178 12.835 24.18 12.905 24.148 12.922 C 16.1 17.167 8.05 21.407 0 25.648 Z" style="fill-opacity: 1; fill: #6366f1"/>
      </g>
    </g>
    <g style="clip-path: url(#clippath0);" transform="matrix(1, 0, 0, -1, 102.220276, 300.529999)">
      <g transform="translate(113.0474 93.6597)">
        <path d="M 0 0 L 0 25.847 C -8.116 21.542 -16.159 17.276 -24.346 12.934 C -16.203 8.608 -8.156 4.333 0 0" style="fill-opacity: 1; fill: #6366f1"/>
      </g>
    </g>
    <g style="clip-path: url(#clippath0);" transform="matrix(1, 0, 0, -1, 102.220276, 300.529999)">
      <g transform="translate(88.9194 109.4038)">
        <path d="M 0 0 C 8.07 4.253 16.14 8.507 24.202 12.757 C 24.178 12.835 24.18 12.905 24.148 12.922 C 16.101 17.166 8.05 21.407 0 25.647 Z" style="fill-opacity: 1; fill: #6366f1"/>
      </g>
    </g>
    <g style="clip-path: url(#clippath0);" transform="matrix(1, 0, 0, -1, 102.220276, 300.529999)">
      <g transform="translate(113.1416 122.1899)">
        <path d="M 0 0 L 0 25.847 C -8.116 21.542 -16.159 17.276 -24.346 12.934 C -16.203 8.608 -8.156 4.333 0 0" style="fill-opacity: 1; fill: #6366f1"/>
      </g>
    </g>
    <g style="clip-path: url(#clippath0);" transform="matrix(1, 0, 0, -1, 102.220276, 300.529999)">
      <g transform="translate(121.0864 175.6421)">
        <path d="M 0 0 C 8.07 -4.253 16.14 -8.507 24.202 -12.757 C 24.178 -12.835 24.18 -12.905 24.148 -12.922 C 16.1 -17.166 8.05 -21.407 0 -25.647 Z" style="fill-opacity: 1; fill: #6366f1"/>
      </g>
    </g>
    <g style="clip-path: url(#clippath0);" transform="matrix(1, 0, 0, -1, 102.220276, 300.529999)">
      <g transform="translate(145.3086 162.856)">
        <path d="M 0 0 L 0 -25.847 C -8.116 -21.542 -16.159 -17.276 -24.346 -12.934 C -16.203 -8.608 -8.156 -4.333 0 0" style="fill-opacity: 1; fill: #6366f1"/>
      </g>
    </g>
    <g style="clip-path: url(#clippath0);" transform="matrix(1, 0, 0, -1, 102.220276, 300.529999)">
      <g transform="translate(121.1807 147.7041)">
        <path d="M 0 0 C 8.07 -4.253 16.14 -8.507 24.202 -12.757 C 24.178 -12.835 24.18 -12.905 24.148 -12.922 C 16.101 -17.166 8.05 -21.407 0 -25.647 Z" style="fill-opacity: 1; fill: #6366f1"/>
      </g>
    </g>
    <g style="clip-path: url(#clippath0);" transform="matrix(1, 0, 0, -1, 102.220276, 300.529999)">
      <g transform="translate(145.4033 134.918)">
        <path d="M 0 0 L 0 -25.847 C -8.117 -21.542 -16.159 -17.276 -24.346 -12.934 C -16.203 -8.608 -8.156 -4.333 0 0" style="fill-opacity: 1; fill: #6366f1"/>
      </g>
    </g>
    <g style="clip-path: url(#clippath0);" transform="matrix(1, 0, 0, -1, 102.220276, 300.529999)">
      <g transform="translate(120.8457 119.8872)">
        <path d="M 0 0 C 8.07 -4.253 16.14 -8.507 24.202 -12.757 C 24.178 -12.835 24.18 -12.905 24.148 -12.922 C 16.1 -17.167 8.05 -21.407 0 -25.647 Z" style="fill-opacity: 1; fill: #6366f1"/>
      </g>
    </g>
    <g style="clip-path: url(#clippath0);" transform="matrix(1, 0, 0, -1, 102.220276, 300.529999)">
      <g transform="translate(145.0679 107.1006)">
        <path d="M 0 0 L 0 -25.847 C -8.116 -21.542 -16.159 -17.276 -24.346 -12.934 C -16.203 -8.607 -8.156 -4.333 0 0" style="fill-opacity: 1; fill: #6366f1"/>
      </g>
    </g>
    <g style="clip-path: url(#clippath0);" transform="matrix(1, 0, 0, -1, 102.220276, 300.529999)">
      <g transform="translate(197.8906 188.7388)">
        <path d="M 0 0 C -8.07 -4.254 -16.14 -8.507 -24.202 -12.757 C -24.178 -12.835 -24.18 -12.905 -24.148 -12.922 C -16.101 -17.167 -8.05 -21.407 0 -25.648 Z" style="fill-opacity: 1; fill: #6366f1"/>
      </g>
    </g>
    <g style="clip-path: url(#clippath0);" transform="matrix(1, 0, 0, -1, 102.220276, 300.529999)">
      <g transform="translate(173.668 175.9521)">
        <path d="M 0 0 L 0 -25.847 C 8.117 -21.542 16.159 -17.276 24.347 -12.934 C 16.203 -8.608 8.156 -4.333 0 0" style="fill-opacity: 1; fill: #6366f1"/>
      </g>
    </g>
    <g style="clip-path: url(#clippath0);" transform="matrix(1, 0, 0, -1, 102.220276, 300.529999)">
      <g transform="translate(197.7959 160.8008)">
        <path d="M 0 0 C -8.069 -4.254 -16.14 -8.507 -24.202 -12.757 C -24.178 -12.835 -24.18 -12.905 -24.147 -12.922 C -16.1 -17.167 -8.05 -21.407 0 -25.648 Z" style="fill-opacity: 1; fill: #6366f1"/>
      </g>
    </g>
    <g style="clip-path: url(#clippath0);" transform="matrix(1, 0, 0, -1, 102.220276, 300.529999)">
      <g transform="translate(173.6172 148.0142)">
        <path d="M 0 0 L 0 -25.847 C 8.116 -21.542 16.158 -17.276 24.346 -12.934 C 16.202 -8.608 8.155 -4.333 0 0" style="fill-opacity: 1; fill: #6366f1"/>
      </g>
    </g>
    <g style="clip-path: url(#clippath0);" transform="matrix(1, 0, 0, -1, 102.220276, 300.529999)">
      <g transform="translate(198.1318 132.9839)">
        <path d="M 0 0 C -8.07 -4.254 -16.141 -8.507 -24.202 -12.757 C -24.179 -12.835 -24.181 -12.905 -24.148 -12.922 C -16.101 -17.167 -8.051 -21.407 0 -25.648 Z" style="fill-opacity: 1; fill: #6366f1"/>
      </g>
    </g>
    <g style="clip-path: url(#clippath0);" transform="matrix(1, 0, 0, -1, 102.220276, 300.529999)">
      <g transform="translate(173.9092 120.1973)">
        <path d="M 0 0 L 0 -25.847 C 8.116 -21.542 16.159 -17.276 24.346 -12.934 C 16.203 -8.608 8.156 -4.333 0 0" style="fill-opacity: 1; fill: #6366f1"/>
      </g>
    </g>
    <g style="clip-path: url(#clippath0);" transform="matrix(1, 0, 0, -1, 102.220276, 300.529999)">
      <g transform="translate(147.5596 109.4355)">
        <path d="M 0 0 C 8.07 4.254 16.141 8.507 24.202 12.757 C 24.179 12.835 24.181 12.905 24.148 12.922 C 16.101 17.167 8.05 21.407 0 25.647 Z" style="fill-opacity: 1; fill: #6366f1"/>
      </g>
    </g>
    <g style="clip-path: url(#clippath0);" transform="matrix(1, 0, 0, -1, 102.220276, 300.529999)">
      <g transform="translate(171.7822 121.9258)">
        <path d="M 0 0 L 0 25.847 C -8.116 21.542 -16.159 17.276 -24.346 12.934 C -16.203 8.608 -8.156 4.333 0 0" style="fill-opacity: 1; fill: #6366f1"/>
      </g>
    </g>
  </g>
</svg>